<?xml version="1.0" encoding="UTF-8"?>
<svg xmlns="http://www.w3.org/2000/svg" width="1600" height="900" viewBox="0 0 1600 900" role="img" aria-labelledby="title desc">
  <title id="title">Quadratic Structure - Worked example 2</title>
  <desc id="desc">For f(x) = x^2 - 6x + 5, find the vertex. Answer: vertex = (3, -4).</desc>
  <rect width="1600" height="900" fill="#eef4fb"/>
  <rect x="24" y="24" width="1552" height="852" rx="28" fill="#f8fbff" stroke="#b8c8de" stroke-width="2"/>
  <text x="54" y="76" font-size="36" font-weight="900" fill="#162033">S4 Quadratic Structure</text>
  <text x="54" y="112" font-size="20" font-weight="700" fill="#5a6c85">quadratic-graph / svg / review-ready exact layer</text>
  <text class="" x="54" y="160" font-size="23" font-weight="650" fill="#18212f"><tspan x="54" dy="0">EN: For f(x) = x^2 - 6x + 5, find the vertex.</tspan></text>
  <text class="" x="54" y="222" font-size="22" font-weight="600" fill="#334155"><tspan x="54" dy="0">ZH: 對於 f(x) = x^2 - 6x + 5，求頂點。</tspan></text>
  <rect x="54" y="292" width="820" height="540" rx="22" fill="#ffffff" stroke="#c8d4e8" stroke-width="2"/>
  <text x="82" y="338" font-size="24" font-weight="800" fill="#20314d">Deterministic Visual Layer</text>
  <line x1="78" y1="360" x2="850" y2="360" stroke="#d9e4f5" stroke-width="2"/>
  <rect x="86" y="344" width="700" height="320" fill="#f8fbff" stroke="#9fb1cc" stroke-width="2"/>
<line x1="86" y1="344" x2="86" y2="664" stroke="#e6edf7" stroke-width="1"/>
<line x1="86" y1="344" x2="786" y2="344" stroke="#e6edf7" stroke-width="1"/>
<line x1="156" y1="344" x2="156" y2="664" stroke="#e6edf7" stroke-width="1"/>
<line x1="86" y1="376" x2="786" y2="376" stroke="#e6edf7" stroke-width="1"/>
<line x1="226" y1="344" x2="226" y2="664" stroke="#e6edf7" stroke-width="1"/>
<line x1="86" y1="408" x2="786" y2="408" stroke="#e6edf7" stroke-width="1"/>
<line x1="296" y1="344" x2="296" y2="664" stroke="#e6edf7" stroke-width="1"/>
<line x1="86" y1="440" x2="786" y2="440" stroke="#e6edf7" stroke-width="1"/>
<line x1="366" y1="344" x2="366" y2="664" stroke="#e6edf7" stroke-width="1"/>
<line x1="86" y1="472" x2="786" y2="472" stroke="#e6edf7" stroke-width="1"/>
<line x1="436" y1="344" x2="436" y2="664" stroke="#e6edf7" stroke-width="1"/>
<line x1="86" y1="504" x2="786" y2="504" stroke="#e6edf7" stroke-width="1"/>
<line x1="506" y1="344" x2="506" y2="664" stroke="#e6edf7" stroke-width="1"/>
<line x1="86" y1="536" x2="786" y2="536" stroke="#e6edf7" stroke-width="1"/>
<line x1="576" y1="344" x2="576" y2="664" stroke="#e6edf7" stroke-width="1"/>
<line x1="86" y1="568" x2="786" y2="568" stroke="#e6edf7" stroke-width="1"/>
<line x1="646" y1="344" x2="646" y2="664" stroke="#e6edf7" stroke-width="1"/>
<line x1="86" y1="600" x2="786" y2="600" stroke="#e6edf7" stroke-width="1"/>
<line x1="716" y1="344" x2="716" y2="664" stroke="#e6edf7" stroke-width="1"/>
<line x1="86" y1="632" x2="786" y2="632" stroke="#e6edf7" stroke-width="1"/>
<line x1="786" y1="344" x2="786" y2="664" stroke="#e6edf7" stroke-width="1"/>
<line x1="86" y1="664" x2="786" y2="664" stroke="#e6edf7" stroke-width="1"/>
<line x1="86" y1="526.8571428571429" x2="786" y2="526.8571428571429" stroke="#20314d" stroke-width="3"/>
<line x1="173.5" y1="344" x2="173.5" y2="664" stroke="#20314d" stroke-width="3"/>
<text x="94" y="654" font-size="18" fill="#5a6c85">-1</text>
<text x="750" y="654" font-size="18" fill="#5a6c85">7</text>
<text x="181.5" y="366" font-size="18" fill="#5a6c85">8</text>
<path d="M 173.50 412.57 L 182.25 426.06 L 191.00 439.09 L 199.75 451.66 L 208.50 463.77 L 217.25 475.43 L 226.00 486.63 L 234.75 497.37 L 243.50 507.66 L 252.25 517.49 L 261.00 526.86 L 269.75 535.77 L 278.50 544.23 L 287.25 552.23 L 296.00 559.77 L 304.75 566.86 L 313.50 573.49 L 322.25 579.66 L 331.00 585.37 L 339.75 590.63 L 348.50 595.43 L 357.25 599.77 L 366.00 603.66 L 374.75 607.09 L 383.50 610.06 L 392.25 612.57 L 401.00 614.63 L 409.75 616.23 L 418.50 617.37 L 427.25 618.06 L 436.00 618.29 L 444.75 618.06 L 453.50 617.37 L 462.25 616.23 L 471.00 614.63 L 479.75 612.57 L 488.50 610.06 L 497.25 607.09 L 506.00 603.66 L 514.75 599.77 L 523.50 595.43 L 532.25 590.63 L 541.00 585.37 L 549.75 579.66 L 558.50 573.49 L 567.25 566.86 L 576.00 559.77 L 584.75 552.23 L 593.50 544.23 L 602.25 535.77 L 611.00 526.86 L 619.75 517.49 L 628.50 507.66 L 637.25 497.37 L 646.00 486.63 L 654.75 475.43 L 663.50 463.77 L 672.25 451.66 L 681.00 439.09 L 689.75 426.06 L 698.50 412.57" fill="none" stroke="#7c3aed" stroke-width="5"/>
<circle cx="436" cy="618.2857142857143" r="8" fill="#7c3aed" stroke="#ffffff" stroke-width="3"/>
  <text x="450" y="608.2857142857143" font-size="20" font-weight="800" fill="#7c3aed">vertex (3,-4)</text>
  <rect x="920" y="292" width="620" height="540" rx="22" fill="#ffffff" stroke="#c8d4e8" stroke-width="2"/>
  <text x="948" y="338" font-size="24" font-weight="800" fill="#20314d">Exact Checks And Answer</text>
  <line x1="944" y1="360" x2="1516" y2="360" stroke="#d9e4f5" stroke-width="2"/>
  <text class="" x="950" y="380" font-size="24" font-weight="700" fill="#20314d"><tspan x="950" dy="0">3 ** 2 - 6 * 3 + 5 = -4</tspan></text>
  <rect x="950" y="588" width="540" height="152" rx="18" fill="#e9fbf3" stroke="#80cfa3" stroke-width="2"/>
  <text x="978" y="632" font-size="26" font-weight="900" fill="#0f766e">Answer</text>
  <text class="" x="978" y="674" font-size="27" font-weight="900" fill="#0f766e"><tspan x="978" dy="0">vertex = (3, -4).</tspan></text>
  <text class="" x="950" y="786" font-size="21" font-weight="650" fill="#334155"><tspan x="950" dy="0">zhHans: 顶点 = (3, -4)。</tspan></text>
</svg>
